<svg width="159" height="159" viewBox="0 0 159 159" fill="none" xmlns="http://www.w3.org/2000/svg">
<ellipse cx="3" cy="3" rx="3" ry="3" fill="#101B4F"/>
<ellipse cx="20" cy="3" rx="3" ry="3" fill="#101B4F"/>
<ellipse cx="37" cy="3" rx="3" ry="3" fill="#101B4F"/>
<ellipse cx="54" cy="3" rx="3" ry="3" fill="#101B4F"/>
<ellipse cx="71" cy="3" rx="3" ry="3" fill="#101B4F"/>
<ellipse cx="88" cy="3" rx="3" ry="3" fill="#101B4F"/>
<ellipse cx="105" cy="3" rx="3" ry="3" fill="#101B4F"/>
<ellipse cx="122" cy="3" rx="3" ry="3" fill="#101B4F"/>
<ellipse cx="139" cy="3" rx="3" ry="3" fill="#101B4F"/>
<ellipse cx="156" cy="3" rx="3" ry="3" fill="#101B4F"/>
<ellipse cx="3" cy="20" rx="3" ry="3" fill="#101B4F"/>
<ellipse cx="20" cy="20" rx="3" ry="3" fill="#101B4F"/>
<ellipse cx="37" cy="20" rx="3" ry="3" fill="#101B4F"/>
<ellipse cx="54" cy="20" rx="3" ry="3" fill="#101B4F"/>
<ellipse cx="71" cy="20" rx="3" ry="3" fill="#101B4F"/>
<ellipse cx="88" cy="20" rx="3" ry="3" fill="#101B4F"/>
<ellipse cx="105" cy="20" rx="3" ry="3" fill="#101B4F"/>
<ellipse cx="122" cy="20" rx="3" ry="3" fill="#101B4F"/>
<ellipse cx="139" cy="20" rx="3" ry="3" fill="#101B4F"/>
<ellipse cx="156" cy="20" rx="3" ry="3" fill="#101B4F"/>
<ellipse cx="3" cy="36.9998" rx="3" ry="3" fill="#101B4F"/>
<ellipse cx="20" cy="36.9998" rx="3" ry="3" fill="#101B4F"/>
<ellipse cx="37" cy="36.9998" rx="3" ry="3" fill="#101B4F"/>
<ellipse cx="54" cy="36.9998" rx="3" ry="3" fill="#101B4F"/>
<ellipse cx="71" cy="36.9998" rx="3" ry="3" fill="#101B4F"/>
<ellipse cx="88" cy="36.9998" rx="3" ry="3" fill="#101B4F"/>
<ellipse cx="105" cy="36.9998" rx="3" ry="3" fill="#101B4F"/>
<ellipse cx="122" cy="36.9998" rx="3" ry="3" fill="#101B4F"/>
<ellipse cx="139" cy="36.9998" rx="3" ry="3" fill="#101B4F"/>
<ellipse cx="156" cy="36.9998" rx="3" ry="3" fill="#101B4F"/>
<ellipse cx="3" cy="53.9998" rx="3" ry="3" fill="#101B4F"/>
<ellipse cx="20" cy="53.9998" rx="3" ry="3" fill="#101B4F"/>
<ellipse cx="37" cy="53.9998" rx="3" ry="3" fill="#101B4F"/>
<ellipse cx="54" cy="53.9998" rx="3" ry="3" fill="#101B4F"/>
<ellipse cx="71" cy="53.9998" rx="3" ry="3" fill="#101B4F"/>
<ellipse cx="88" cy="53.9998" rx="3" ry="3" fill="#101B4F"/>
<ellipse cx="105" cy="53.9998" rx="3" ry="3" fill="#101B4F"/>
<ellipse cx="122" cy="53.9998" rx="3" ry="3" fill="#101B4F"/>
<ellipse cx="139" cy="53.9998" rx="3" ry="3" fill="#101B4F"/>
<ellipse cx="156" cy="53.9998" rx="3" ry="3" fill="#101B4F"/>
<ellipse cx="3" cy="71" rx="3" ry="3" fill="#101B4F"/>
<ellipse cx="20" cy="71" rx="3" ry="3" fill="#101B4F"/>
<ellipse cx="37" cy="71" rx="3" ry="3" fill="#101B4F"/>
<ellipse cx="54" cy="71" rx="3" ry="3" fill="#101B4F"/>
<ellipse cx="71" cy="71" rx="3" ry="3" fill="#101B4F"/>
<ellipse cx="105" cy="71" rx="3" ry="3" fill="#101B4F"/>
<ellipse cx="122" cy="71" rx="3" ry="3" fill="#101B4F"/>
<ellipse cx="139" cy="71" rx="3" ry="3" fill="#101B4F"/>
<ellipse cx="156" cy="71" rx="3" ry="3" fill="#101B4F"/>
<ellipse cx="3" cy="88" rx="3" ry="3" fill="#101B4F"/>
<ellipse cx="20" cy="88" rx="3" ry="3" fill="#101B4F"/>
<ellipse cx="37" cy="88" rx="3" ry="3" fill="#101B4F"/>
<ellipse cx="54" cy="88" rx="3" ry="3" fill="#101B4F"/>
<ellipse cx="71" cy="88" rx="3" ry="3" fill="#101B4F"/>
<ellipse cx="88" cy="88" rx="3" ry="3" fill="#101B4F"/>
<ellipse cx="105" cy="88" rx="3" ry="3" fill="#101B4F"/>
<ellipse cx="122" cy="88" rx="3" ry="3" fill="#101B4F"/>
<ellipse cx="139" cy="88" rx="3" ry="3" fill="#101B4F"/>
<ellipse cx="156" cy="88" rx="3" ry="3" fill="#101B4F"/>
<ellipse cx="3" cy="105" rx="3" ry="3" fill="#101B4F"/>
<ellipse cx="20" cy="105" rx="3" ry="3" fill="#101B4F"/>
<ellipse cx="37" cy="105" rx="3" ry="3" fill="#101B4F"/>
<ellipse cx="54" cy="105" rx="3" ry="3" fill="#101B4F"/>
<ellipse cx="71" cy="105" rx="3" ry="3" fill="#101B4F"/>
<ellipse cx="88" cy="105" rx="3" ry="3" fill="#101B4F"/>
<ellipse cx="105" cy="105" rx="3" ry="3" fill="#101B4F"/>
<ellipse cx="122" cy="105" rx="3" ry="3" fill="#101B4F"/>
<ellipse cx="139" cy="105" rx="3" ry="3" fill="#101B4F"/>
<ellipse cx="156" cy="105" rx="3" ry="3" fill="#101B4F"/>
<ellipse cx="3" cy="122" rx="3" ry="3" fill="#101B4F"/>
<ellipse cx="20" cy="122" rx="3" ry="3" fill="#101B4F"/>
<ellipse cx="37" cy="122" rx="3" ry="3" fill="#101B4F"/>
<ellipse cx="54" cy="122" rx="3" ry="3" fill="#101B4F"/>
<ellipse cx="71" cy="122" rx="3" ry="3" fill="#101B4F"/>
<ellipse cx="88" cy="122" rx="3" ry="3" fill="#101B4F"/>
<ellipse cx="105" cy="122" rx="3" ry="3" fill="#101B4F"/>
<ellipse cx="122" cy="122" rx="3" ry="3" fill="#101B4F"/>
<ellipse cx="139" cy="122" rx="3" ry="3" fill="#101B4F"/>
<ellipse cx="156" cy="122" rx="3" ry="3" fill="#101B4F"/>
<ellipse cx="3" cy="139" rx="3" ry="3" fill="#101B4F"/>
<ellipse cx="20" cy="139" rx="3" ry="3" fill="#101B4F"/>
<ellipse cx="37" cy="139" rx="3" ry="3" fill="#101B4F"/>
<ellipse cx="54" cy="139" rx="3" ry="3" fill="#101B4F"/>
<ellipse cx="71" cy="139" rx="3" ry="3" fill="#101B4F"/>
<ellipse cx="88" cy="139" rx="3" ry="3" fill="#101B4F"/>
<ellipse cx="105" cy="139" rx="3" ry="3" fill="#101B4F"/>
<ellipse cx="122" cy="139" rx="3" ry="3" fill="#101B4F"/>
<ellipse cx="139" cy="139" rx="3" ry="3" fill="#101B4F"/>
<ellipse cx="156" cy="139" rx="3" ry="3" fill="#101B4F"/>
<ellipse cx="3" cy="156" rx="3" ry="3" fill="#101B4F"/>
<ellipse cx="20" cy="156" rx="3" ry="3" fill="#101B4F"/>
<ellipse cx="37" cy="156" rx="3" ry="3" fill="#101B4F"/>
<ellipse cx="54" cy="156" rx="3" ry="3" fill="#101B4F"/>
<ellipse cx="71" cy="156" rx="3" ry="3" fill="#101B4F"/>
<ellipse cx="88" cy="156" rx="3" ry="3" fill="#101B4F"/>
<ellipse cx="105" cy="156" rx="3" ry="3" fill="#101B4F"/>
<ellipse cx="122" cy="156" rx="3" ry="3" fill="#101B4F"/>
<ellipse cx="139" cy="156" rx="3" ry="3" fill="#101B4F"/>
<ellipse cx="156" cy="156" rx="3" ry="3" fill="#101B4F"/>
</svg>
