<svg width="159" height="159" viewBox="0 0 159 159" fill="none" xmlns="http://www.w3.org/2000/svg">
<circle cx="3" cy="3" r="3" fill="#FBA229"/>
<circle cx="20" cy="3" r="3" fill="#FBA229"/>
<circle cx="37" cy="3" r="3" fill="#FBA229"/>
<circle cx="54" cy="3" r="3" fill="#FBA229"/>
<circle cx="71" cy="3" r="3" fill="#FBA229"/>
<circle cx="88" cy="3" r="3" fill="#FBA229"/>
<circle cx="105" cy="3" r="3" fill="#FBA229"/>
<circle cx="122" cy="3" r="3" fill="#FBA229"/>
<circle cx="139" cy="3" r="3" fill="#FBA229"/>
<circle cx="156" cy="3" r="3" fill="#FBA229"/>
<circle cx="3" cy="20" r="3" fill="#FBA229"/>
<circle cx="20" cy="20" r="3" fill="#FBA229"/>
<circle cx="37" cy="20" r="3" fill="#FBA229"/>
<circle cx="54" cy="20" r="3" fill="#FBA229"/>
<circle cx="71" cy="20" r="3" fill="#FBA229"/>
<circle cx="88" cy="20" r="3" fill="#FBA229"/>
<circle cx="105" cy="20" r="3" fill="#FBA229"/>
<circle cx="122" cy="20" r="3" fill="#FBA229"/>
<circle cx="139" cy="20" r="3" fill="#FBA229"/>
<circle cx="156" cy="20" r="3" fill="#FBA229"/>
<circle cx="3" cy="37" r="3" fill="#FBA229"/>
<circle cx="20" cy="37" r="3" fill="#FBA229"/>
<circle cx="37" cy="37" r="3" fill="#FBA229"/>
<circle cx="54" cy="37" r="3" fill="#FBA229"/>
<circle cx="71" cy="37" r="3" fill="#FBA229"/>
<circle cx="88" cy="37" r="3" fill="#FBA229"/>
<circle cx="105" cy="37" r="3" fill="#FBA229"/>
<circle cx="122" cy="37" r="3" fill="#FBA229"/>
<circle cx="139" cy="37" r="3" fill="#FBA229"/>
<circle cx="156" cy="37" r="3" fill="#FBA229"/>
<circle cx="3" cy="54" r="3" fill="#FBA229"/>
<circle cx="20" cy="54" r="3" fill="#FBA229"/>
<circle cx="37" cy="54" r="3" fill="#FBA229"/>
<circle cx="54" cy="54" r="3" fill="#FBA229"/>
<circle cx="71" cy="54" r="3" fill="#FBA229"/>
<circle cx="88" cy="54" r="3" fill="#FBA229"/>
<circle cx="105" cy="54" r="3" fill="#FBA229"/>
<circle cx="122" cy="54" r="3" fill="#FBA229"/>
<circle cx="139" cy="54" r="3" fill="#FBA229"/>
<circle cx="156" cy="54" r="3" fill="#FBA229"/>
<circle cx="3" cy="71" r="3" fill="#FBA229"/>
<circle cx="20" cy="71" r="3" fill="#FBA229"/>
<circle cx="37" cy="71" r="3" fill="#FBA229"/>
<circle cx="54" cy="71" r="3" fill="#FBA229"/>
<circle cx="71" cy="71" r="3" fill="#FBA229"/>
<circle cx="88" cy="71" r="3" fill="#FBA229"/>
<circle cx="105" cy="71" r="3" fill="#FBA229"/>
<circle cx="122" cy="71" r="3" fill="#FBA229"/>
<circle cx="139" cy="71" r="3" fill="#FBA229"/>
<circle cx="156" cy="71" r="3" fill="#FBA229"/>
<circle cx="3" cy="88" r="3" fill="#FBA229"/>
<circle cx="20" cy="88" r="3" fill="#FBA229"/>
<circle cx="37" cy="88" r="3" fill="#FBA229"/>
<circle cx="54" cy="88" r="3" fill="#FBA229"/>
<circle cx="71" cy="88" r="3" fill="#FBA229"/>
<circle cx="88" cy="88" r="3" fill="#FBA229"/>
<circle cx="105" cy="88" r="3" fill="#FBA229"/>
<circle cx="122" cy="88" r="3" fill="#FBA229"/>
<circle cx="139" cy="88" r="3" fill="#FBA229"/>
<circle cx="156" cy="88" r="3" fill="#FBA229"/>
<circle cx="3" cy="105" r="3" fill="#FBA229"/>
<circle cx="20" cy="105" r="3" fill="#FBA229"/>
<circle cx="37" cy="105" r="3" fill="#FBA229"/>
<circle cx="54" cy="105" r="3" fill="#FBA229"/>
<circle cx="71" cy="105" r="3" fill="#FBA229"/>
<circle cx="88" cy="105" r="3" fill="#FBA229"/>
<circle cx="105" cy="105" r="3" fill="#FBA229"/>
<circle cx="122" cy="105" r="3" fill="#FBA229"/>
<circle cx="139" cy="105" r="3" fill="#FBA229"/>
<circle cx="156" cy="105" r="3" fill="#FBA229"/>
<circle cx="3" cy="122" r="3" fill="#FBA229"/>
<circle cx="20" cy="122" r="3" fill="#FBA229"/>
<circle cx="37" cy="122" r="3" fill="#FBA229"/>
<circle cx="54" cy="122" r="3" fill="#FBA229"/>
<circle cx="71" cy="122" r="3" fill="#FBA229"/>
<circle cx="88" cy="122" r="3" fill="#FBA229"/>
<circle cx="105" cy="122" r="3" fill="#FBA229"/>
<circle cx="122" cy="122" r="3" fill="#FBA229"/>
<circle cx="139" cy="122" r="3" fill="#FBA229"/>
<circle cx="156" cy="122" r="3" fill="#FBA229"/>
<circle cx="3" cy="139" r="3" fill="#FBA229"/>
<circle cx="20" cy="139" r="3" fill="#FBA229"/>
<circle cx="37" cy="139" r="3" fill="#FBA229"/>
<circle cx="54" cy="139" r="3" fill="#FBA229"/>
<circle cx="71" cy="139" r="3" fill="#FBA229"/>
<circle cx="88" cy="139" r="3" fill="#FBA229"/>
<circle cx="105" cy="139" r="3" fill="#FBA229"/>
<circle cx="122" cy="139" r="3" fill="#FBA229"/>
<circle cx="139" cy="139" r="3" fill="#FBA229"/>
<circle cx="156" cy="139" r="3" fill="#FBA229"/>
<circle cx="3" cy="156" r="3" fill="#FBA229"/>
<circle cx="20" cy="156" r="3" fill="#FBA229"/>
<circle cx="37" cy="156" r="3" fill="#FBA229"/>
<circle cx="54" cy="156" r="3" fill="#FBA229"/>
<circle cx="71" cy="156" r="3" fill="#FBA229"/>
<circle cx="88" cy="156" r="3" fill="#FBA229"/>
<circle cx="105" cy="156" r="3" fill="#FBA229"/>
<circle cx="122" cy="156" r="3" fill="#FBA229"/>
<circle cx="139" cy="156" r="3" fill="#FBA229"/>
<circle cx="156" cy="156" r="3" fill="#FBA229"/>
</svg>
