<svg width="127" height="17" viewBox="0 0 127 17" fill="none" xmlns="http://www.w3.org/2000/svg">
<path d="M10.5373 0.533677L12.7049 4.59618C12.8556 4.87873 13.1471 5.07452 13.4842 5.11975L18.3314 5.77125C19.1805 5.88546 19.5193 6.85029 18.9051 7.40389L15.3977 10.5661C15.1539 10.786 15.0425 11.103 15.1002 11.4134L15.9281 15.8786C16.0732 16.6606 15.1856 17.2568 14.4263 16.8879L10.0911 14.7799C9.78958 14.6334 9.42918 14.6334 9.12771 14.7799L4.79244 16.8879C4.03315 17.2572 3.14557 16.6606 3.29069 15.8786L4.11854 11.4134C4.17627 11.103 4.06482 10.786 3.82108 10.5661L0.313656 7.40389C-0.300514 6.84992 0.0382415 5.88509 0.887335 5.77125L5.73454 5.11975C6.07169 5.07452 6.36314 4.87873 6.51388 4.59618L8.68151 0.533677C9.06076 -0.177892 10.1576 -0.177892 10.5373 0.533677Z" fill="white"/>
<path d="M37.4825 0.533677L39.6502 4.59618C39.8009 4.87873 40.0924 5.07452 40.4295 5.11975L45.2767 5.77125C46.1258 5.88546 46.4646 6.85029 45.8504 7.40389L42.343 10.5661C42.0992 10.786 41.9878 11.103 42.0455 11.4134L42.8734 15.8786C43.0185 16.6606 42.1309 17.2568 41.3716 16.8879L37.0363 14.7799C36.7349 14.6334 36.3745 14.6334 36.073 14.7799L31.7377 16.8879C30.9784 17.2572 30.0909 16.6606 30.236 15.8786L31.0638 11.4134C31.1215 11.103 31.0101 10.786 30.7664 10.5661L27.2589 7.40389C26.6448 6.84992 26.9835 5.88509 27.8326 5.77125L32.6798 5.11975C33.017 5.07452 33.3084 4.87873 33.4592 4.59618L35.6268 0.533677C36.006 -0.177892 37.1029 -0.177892 37.4825 0.533677Z" fill="white"/>
<path d="M64.4279 0.533677L66.5955 4.59618C66.7462 4.87873 67.0377 5.07452 67.3748 5.11975L72.2221 5.77125C73.0711 5.88546 73.4099 6.85029 72.7957 7.40389L69.2883 10.5661C69.0446 10.786 68.9331 11.103 68.9908 11.4134L69.8187 15.8786C69.9638 16.6606 69.0762 17.2568 68.3169 16.8879L63.9817 14.7799C63.6802 14.6334 63.3198 14.6334 63.0183 14.7799L58.6831 16.8879C57.9238 17.2572 57.0362 16.6606 57.1813 15.8786L58.0092 11.4134C58.0669 11.103 57.9554 10.786 57.7117 10.5661L54.2043 7.40389C53.5901 6.84992 53.9289 5.88509 54.778 5.77125L59.6252 5.11975C59.9623 5.07452 60.2538 4.87873 60.4045 4.59618L62.5721 0.533677C62.9514 -0.177892 64.0482 -0.177892 64.4279 0.533677Z" fill="white"/>
<path d="M91.3732 0.533677L93.5409 4.59618C93.6916 4.87873 93.983 5.07452 94.3202 5.11975L99.1674 5.77125C100.016 5.88546 100.355 6.85029 99.7411 7.40389L96.2337 10.5661C95.9899 10.786 95.8785 11.103 95.9362 11.4134L96.764 15.8786C96.9092 16.6606 96.0216 17.2568 95.2623 16.8879L90.927 14.7799C90.6256 14.6334 90.2651 14.6334 89.9637 14.7799L85.6284 16.8879C84.8691 17.2572 83.9815 16.6606 84.1267 15.8786L84.9545 11.4134C85.0122 11.103 84.9008 10.786 84.657 10.5661L81.1496 7.40389C80.5355 6.84992 80.8742 5.88509 81.7233 5.77125L86.5705 5.11975C86.9077 5.07452 87.1991 4.87873 87.3498 4.59618L89.5175 0.533677C89.8967 -0.177892 90.9936 -0.177892 91.3732 0.533677Z" fill="white"/>
<path d="M118.319 0.533677L120.486 4.59618C120.637 4.87873 120.928 5.07452 121.265 5.11975L126.113 5.77125C126.962 5.88546 127.301 6.85029 126.686 7.40389L123.179 10.5661C122.935 10.786 122.824 11.103 122.881 11.4134L123.709 15.8786C123.854 16.6606 122.967 17.2568 122.208 16.8879L117.872 14.7799C117.571 14.6334 117.21 14.6334 116.909 14.7799L112.574 16.8879C111.814 17.2572 110.927 16.6606 111.072 15.8786L111.9 11.4134C111.958 11.103 111.846 10.786 111.602 10.5661L108.095 7.40389C107.481 6.84992 107.819 5.88509 108.669 5.77125L113.516 5.11975C113.853 5.07452 114.144 4.87873 114.295 4.59618L116.463 0.533677C116.842 -0.177892 117.939 -0.177892 118.319 0.533677Z" fill="white"/>
</svg>
